<mxfile host="app.diagrams.net" modified="2024-03-02T00:32:12.976Z" agent="Mozilla/5.0 (Windows NT 10.0; Win64; x64; rv:123.0) Gecko/20100101 Firefox/123.0" etag="LB3HNPdHj4nTQYrab79h" version="24.0.0" type="device">
  <diagram id="xo4uC17DPznQnbRXL3TF" name="MergeRoom">
    <mxGraphModel dx="880" dy="442" grid="1" gridSize="10" guides="1" tooltips="1" connect="1" arrows="1" fold="1" page="1" pageScale="1" pageWidth="827" pageHeight="1169" math="0" shadow="0">
      <root>
        <mxCell id="0" />
        <mxCell id="1" parent="0" />
        <mxCell id="GSm0A96lBEENtcwGzsFb-1" value="gc: GameController" style="shape=umlLifeline;perimeter=lifelinePerimeter;whiteSpace=wrap;html=1;container=1;dropTarget=0;collapsible=0;recursiveResize=0;outlineConnect=0;portConstraint=eastwest;newEdgeStyle={&quot;curved&quot;:0,&quot;rounded&quot;:0};" parent="1" vertex="1">
          <mxGeometry x="80" y="40" width="110" height="660" as="geometry" />
        </mxCell>
        <mxCell id="GSm0A96lBEENtcwGzsFb-4" value="" style="html=1;points=[[0,0,0,0,5],[0,1,0,0,-5],[1,0,0,0,5],[1,1,0,0,-5]];perimeter=orthogonalPerimeter;outlineConnect=0;targetShapes=umlLifeline;portConstraint=eastwest;newEdgeStyle={&quot;curved&quot;:0,&quot;rounded&quot;:0};" parent="GSm0A96lBEENtcwGzsFb-1" vertex="1">
          <mxGeometry x="50" y="70" width="10" height="580" as="geometry" />
        </mxCell>
        <mxCell id="FsLcxieu5-XQCKXkS7uP-18" value="" style="html=1;points=[[0,0,0,0,5],[0,1,0,0,-5],[1,0,0,0,5],[1,1,0,0,-5]];perimeter=orthogonalPerimeter;outlineConnect=0;targetShapes=umlLifeline;portConstraint=eastwest;newEdgeStyle={&quot;curved&quot;:0,&quot;rounded&quot;:0};" parent="GSm0A96lBEENtcwGzsFb-1" vertex="1">
          <mxGeometry x="55" y="350" width="10" height="40" as="geometry" />
        </mxCell>
        <mxCell id="FsLcxieu5-XQCKXkS7uP-19" value="i3 = sortItems()" style="html=1;align=left;spacingLeft=2;endArrow=block;rounded=0;edgeStyle=orthogonalEdgeStyle;curved=0;rounded=0;" parent="GSm0A96lBEENtcwGzsFb-1" target="FsLcxieu5-XQCKXkS7uP-18" edge="1">
          <mxGeometry relative="1" as="geometry">
            <mxPoint x="60" y="330" as="sourcePoint" />
            <Array as="points">
              <mxPoint x="90" y="360" />
            </Array>
          </mxGeometry>
        </mxCell>
        <mxCell id="FsLcxieu5-XQCKXkS7uP-25" value="" style="html=1;points=[[0,0,0,0,5],[0,1,0,0,-5],[1,0,0,0,5],[1,1,0,0,-5]];perimeter=orthogonalPerimeter;outlineConnect=0;targetShapes=umlLifeline;portConstraint=eastwest;newEdgeStyle={&quot;curved&quot;:0,&quot;rounded&quot;:0};" parent="GSm0A96lBEENtcwGzsFb-1" vertex="1">
          <mxGeometry x="55" y="450" width="10" height="40" as="geometry" />
        </mxCell>
        <mxCell id="FsLcxieu5-XQCKXkS7uP-26" value="removeRoom(r1)" style="html=1;align=left;spacingLeft=2;endArrow=block;rounded=0;edgeStyle=orthogonalEdgeStyle;curved=0;rounded=0;" parent="GSm0A96lBEENtcwGzsFb-1" target="FsLcxieu5-XQCKXkS7uP-25" edge="1">
          <mxGeometry relative="1" as="geometry">
            <mxPoint x="60" y="430" as="sourcePoint" />
            <Array as="points">
              <mxPoint x="90" y="460" />
            </Array>
          </mxGeometry>
        </mxCell>
        <mxCell id="FsLcxieu5-XQCKXkS7uP-27" value="" style="html=1;points=[[0,0,0,0,5],[0,1,0,0,-5],[1,0,0,0,5],[1,1,0,0,-5]];perimeter=orthogonalPerimeter;outlineConnect=0;targetShapes=umlLifeline;portConstraint=eastwest;newEdgeStyle={&quot;curved&quot;:0,&quot;rounded&quot;:0};" parent="GSm0A96lBEENtcwGzsFb-1" vertex="1">
          <mxGeometry x="55" y="520" width="10" height="40" as="geometry" />
        </mxCell>
        <mxCell id="FsLcxieu5-XQCKXkS7uP-28" value="removeRoom(r2)" style="html=1;align=left;spacingLeft=2;endArrow=block;rounded=0;edgeStyle=orthogonalEdgeStyle;curved=0;rounded=0;" parent="GSm0A96lBEENtcwGzsFb-1" target="FsLcxieu5-XQCKXkS7uP-27" edge="1">
          <mxGeometry relative="1" as="geometry">
            <mxPoint x="60" y="500" as="sourcePoint" />
            <Array as="points">
              <mxPoint x="90" y="530" />
            </Array>
          </mxGeometry>
        </mxCell>
        <mxCell id="FsLcxieu5-XQCKXkS7uP-29" value="" style="html=1;points=[[0,0,0,0,5],[0,1,0,0,-5],[1,0,0,0,5],[1,1,0,0,-5]];perimeter=orthogonalPerimeter;outlineConnect=0;targetShapes=umlLifeline;portConstraint=eastwest;newEdgeStyle={&quot;curved&quot;:0,&quot;rounded&quot;:0};" parent="GSm0A96lBEENtcwGzsFb-1" vertex="1">
          <mxGeometry x="55" y="600" width="10" height="40" as="geometry" />
        </mxCell>
        <mxCell id="FsLcxieu5-XQCKXkS7uP-30" value="addRoom(r3)" style="html=1;align=left;spacingLeft=2;endArrow=block;rounded=0;edgeStyle=orthogonalEdgeStyle;curved=0;rounded=0;" parent="GSm0A96lBEENtcwGzsFb-1" target="FsLcxieu5-XQCKXkS7uP-29" edge="1">
          <mxGeometry relative="1" as="geometry">
            <mxPoint x="60" y="580" as="sourcePoint" />
            <Array as="points">
              <mxPoint x="90" y="610" />
            </Array>
          </mxGeometry>
        </mxCell>
        <mxCell id="GSm0A96lBEENtcwGzsFb-2" value="r1: Room" style="shape=umlLifeline;perimeter=lifelinePerimeter;whiteSpace=wrap;html=1;container=1;dropTarget=0;collapsible=0;recursiveResize=0;outlineConnect=0;portConstraint=eastwest;newEdgeStyle={&quot;curved&quot;:0,&quot;rounded&quot;:0};" parent="1" vertex="1">
          <mxGeometry x="240" y="40" width="100" height="660" as="geometry" />
        </mxCell>
        <mxCell id="GSm0A96lBEENtcwGzsFb-6" value="" style="html=1;points=[[0,0,0,0,5],[0,1,0,0,-5],[1,0,0,0,5],[1,1,0,0,-5]];perimeter=orthogonalPerimeter;outlineConnect=0;targetShapes=umlLifeline;portConstraint=eastwest;newEdgeStyle={&quot;curved&quot;:0,&quot;rounded&quot;:0};" parent="GSm0A96lBEENtcwGzsFb-2" vertex="1">
          <mxGeometry x="45" y="80" width="10" height="20" as="geometry" />
        </mxCell>
        <mxCell id="FsLcxieu5-XQCKXkS7uP-8" value="" style="html=1;points=[[0,0,0,0,5],[0,1,0,0,-5],[1,0,0,0,5],[1,1,0,0,-5]];perimeter=orthogonalPerimeter;outlineConnect=0;targetShapes=umlLifeline;portConstraint=eastwest;newEdgeStyle={&quot;curved&quot;:0,&quot;rounded&quot;:0};" parent="GSm0A96lBEENtcwGzsFb-2" vertex="1">
          <mxGeometry x="45" y="260" width="10" height="20" as="geometry" />
        </mxCell>
        <mxCell id="FsLcxieu5-XQCKXkS7uP-9" value="getItems()" style="html=1;verticalAlign=bottom;endArrow=block;curved=0;rounded=0;" parent="GSm0A96lBEENtcwGzsFb-2" edge="1">
          <mxGeometry width="80" relative="1" as="geometry">
            <mxPoint x="-100" y="260" as="sourcePoint" />
            <mxPoint x="49.50000000000023" y="260" as="targetPoint" />
          </mxGeometry>
        </mxCell>
        <mxCell id="FsLcxieu5-XQCKXkS7uP-10" value="i1:= list&amp;lt;Item&amp;gt;" style="html=1;verticalAlign=bottom;endArrow=open;dashed=1;endSize=8;curved=0;rounded=0;exitX=0;exitY=1;exitDx=0;exitDy=-5;exitPerimeter=0;" parent="GSm0A96lBEENtcwGzsFb-2" edge="1">
          <mxGeometry relative="1" as="geometry">
            <mxPoint x="45" y="280" as="sourcePoint" />
            <mxPoint x="-99.99999999999989" y="280" as="targetPoint" />
          </mxGeometry>
        </mxCell>
        <mxCell id="GSm0A96lBEENtcwGzsFb-3" value="r2: Room" style="shape=umlLifeline;perimeter=lifelinePerimeter;whiteSpace=wrap;html=1;container=1;dropTarget=0;collapsible=0;recursiveResize=0;outlineConnect=0;portConstraint=eastwest;newEdgeStyle={&quot;curved&quot;:0,&quot;rounded&quot;:0};" parent="1" vertex="1">
          <mxGeometry x="400" y="40" width="100" height="660" as="geometry" />
        </mxCell>
        <mxCell id="GSm0A96lBEENtcwGzsFb-8" value="" style="html=1;points=[[0,0,0,0,5],[0,1,0,0,-5],[1,0,0,0,5],[1,1,0,0,-5]];perimeter=orthogonalPerimeter;outlineConnect=0;targetShapes=umlLifeline;portConstraint=eastwest;newEdgeStyle={&quot;curved&quot;:0,&quot;rounded&quot;:0};" parent="GSm0A96lBEENtcwGzsFb-3" vertex="1">
          <mxGeometry x="45" y="115" width="10" height="25" as="geometry" />
        </mxCell>
        <mxCell id="FsLcxieu5-XQCKXkS7uP-11" value="" style="html=1;points=[[0,0,0,0,5],[0,1,0,0,-5],[1,0,0,0,5],[1,1,0,0,-5]];perimeter=orthogonalPerimeter;outlineConnect=0;targetShapes=umlLifeline;portConstraint=eastwest;newEdgeStyle={&quot;curved&quot;:0,&quot;rounded&quot;:0};" parent="GSm0A96lBEENtcwGzsFb-3" vertex="1">
          <mxGeometry x="45" y="300" width="10" height="20" as="geometry" />
        </mxCell>
        <mxCell id="GSm0A96lBEENtcwGzsFb-5" value="mergeRooms(r1, r2)" style="html=1;verticalAlign=bottom;endArrow=block;curved=0;rounded=0;" parent="1" target="GSm0A96lBEENtcwGzsFb-4" edge="1">
          <mxGeometry width="80" relative="1" as="geometry">
            <mxPoint x="10" y="110" as="sourcePoint" />
            <mxPoint x="110" y="110" as="targetPoint" />
          </mxGeometry>
        </mxCell>
        <mxCell id="GSm0A96lBEENtcwGzsFb-7" value="r3: Room" style="shape=umlLifeline;perimeter=lifelinePerimeter;whiteSpace=wrap;html=1;container=1;dropTarget=0;collapsible=0;recursiveResize=0;outlineConnect=0;portConstraint=eastwest;newEdgeStyle={&quot;curved&quot;:0,&quot;rounded&quot;:0};" parent="1" vertex="1">
          <mxGeometry x="560" y="40" width="100" height="660" as="geometry" />
        </mxCell>
        <mxCell id="GSm0A96lBEENtcwGzsFb-9" value="" style="html=1;points=[[0,0,0,0,5],[0,1,0,0,-5],[1,0,0,0,5],[1,1,0,0,-5]];perimeter=orthogonalPerimeter;outlineConnect=0;targetShapes=umlLifeline;portConstraint=eastwest;newEdgeStyle={&quot;curved&quot;:0,&quot;rounded&quot;:0};" parent="GSm0A96lBEENtcwGzsFb-7" vertex="1">
          <mxGeometry x="45" y="160" width="10" height="30" as="geometry" />
        </mxCell>
        <mxCell id="FsLcxieu5-XQCKXkS7uP-5" value="" style="html=1;points=[[0,0,0,0,5],[0,1,0,0,-5],[1,0,0,0,5],[1,1,0,0,-5]];perimeter=orthogonalPerimeter;outlineConnect=0;targetShapes=umlLifeline;portConstraint=eastwest;newEdgeStyle={&quot;curved&quot;:0,&quot;rounded&quot;:0};" parent="GSm0A96lBEENtcwGzsFb-7" vertex="1">
          <mxGeometry x="45" y="210" width="10" height="30" as="geometry" />
        </mxCell>
        <mxCell id="FsLcxieu5-XQCKXkS7uP-6" value="addNeighbours(n2)" style="html=1;verticalAlign=bottom;endArrow=block;curved=0;rounded=0;entryX=0;entryY=0;entryDx=0;entryDy=5;entryPerimeter=0;" parent="GSm0A96lBEENtcwGzsFb-7" target="FsLcxieu5-XQCKXkS7uP-5" edge="1">
          <mxGeometry width="80" relative="1" as="geometry">
            <mxPoint x="-420" y="215" as="sourcePoint" />
            <mxPoint x="-300" y="230" as="targetPoint" />
          </mxGeometry>
        </mxCell>
        <mxCell id="FsLcxieu5-XQCKXkS7uP-7" value="" style="html=1;verticalAlign=bottom;endArrow=open;dashed=1;endSize=8;curved=0;rounded=0;exitX=0;exitY=1;exitDx=0;exitDy=-5;exitPerimeter=0;" parent="GSm0A96lBEENtcwGzsFb-7" source="FsLcxieu5-XQCKXkS7uP-5" edge="1">
          <mxGeometry relative="1" as="geometry">
            <mxPoint x="-140" y="240" as="sourcePoint" />
            <mxPoint x="-425" y="235" as="targetPoint" />
          </mxGeometry>
        </mxCell>
        <mxCell id="FsLcxieu5-XQCKXkS7uP-21" value="" style="html=1;points=[[0,0,0,0,5],[0,1,0,0,-5],[1,0,0,0,5],[1,1,0,0,-5]];perimeter=orthogonalPerimeter;outlineConnect=0;targetShapes=umlLifeline;portConstraint=eastwest;newEdgeStyle={&quot;curved&quot;:0,&quot;rounded&quot;:0};" parent="GSm0A96lBEENtcwGzsFb-7" vertex="1">
          <mxGeometry x="45" y="400" width="10" height="30" as="geometry" />
        </mxCell>
        <mxCell id="GSm0A96lBEENtcwGzsFb-10" value="getNeighbours()" style="html=1;verticalAlign=bottom;endArrow=block;curved=0;rounded=0;" parent="1" edge="1">
          <mxGeometry width="80" relative="1" as="geometry">
            <mxPoint x="140" y="120" as="sourcePoint" />
            <mxPoint x="289.5000000000002" y="120" as="targetPoint" />
          </mxGeometry>
        </mxCell>
        <mxCell id="GSm0A96lBEENtcwGzsFb-11" value="n1:= list&amp;lt;Room&amp;gt;" style="html=1;verticalAlign=bottom;endArrow=open;dashed=1;endSize=8;curved=0;rounded=0;exitX=0;exitY=1;exitDx=0;exitDy=-5;exitPerimeter=0;" parent="1" edge="1">
          <mxGeometry relative="1" as="geometry">
            <mxPoint x="285" y="140" as="sourcePoint" />
            <mxPoint x="140.0000000000001" y="140" as="targetPoint" />
          </mxGeometry>
        </mxCell>
        <mxCell id="GSm0A96lBEENtcwGzsFb-12" value="getNeighbours()" style="html=1;verticalAlign=bottom;endArrow=block;curved=0;rounded=0;entryX=0;entryY=0;entryDx=0;entryDy=5;entryPerimeter=0;" parent="1" source="GSm0A96lBEENtcwGzsFb-4" target="GSm0A96lBEENtcwGzsFb-8" edge="1">
          <mxGeometry width="80" relative="1" as="geometry">
            <mxPoint x="150" y="184.62" as="sourcePoint" />
            <mxPoint x="299.5000000000002" y="184.62" as="targetPoint" />
          </mxGeometry>
        </mxCell>
        <mxCell id="GSm0A96lBEENtcwGzsFb-13" value="n2:= list&amp;lt;Room&amp;gt;" style="html=1;verticalAlign=bottom;endArrow=open;dashed=1;endSize=8;curved=0;rounded=0;" parent="1" edge="1">
          <mxGeometry relative="1" as="geometry">
            <mxPoint x="442.5" y="180" as="sourcePoint" />
            <mxPoint x="137.4999999999999" y="180" as="targetPoint" />
          </mxGeometry>
        </mxCell>
        <mxCell id="FsLcxieu5-XQCKXkS7uP-1" value="addNeighbours(n1)" style="html=1;verticalAlign=bottom;endArrow=block;curved=0;rounded=0;entryX=0;entryY=0;entryDx=0;entryDy=5;entryPerimeter=0;" parent="1" source="GSm0A96lBEENtcwGzsFb-4" target="GSm0A96lBEENtcwGzsFb-9" edge="1">
          <mxGeometry width="80" relative="1" as="geometry">
            <mxPoint x="180" y="220" as="sourcePoint" />
            <mxPoint x="260" y="220" as="targetPoint" />
          </mxGeometry>
        </mxCell>
        <mxCell id="FsLcxieu5-XQCKXkS7uP-2" value="" style="html=1;verticalAlign=bottom;endArrow=open;dashed=1;endSize=8;curved=0;rounded=0;exitX=0;exitY=1;exitDx=0;exitDy=-5;exitPerimeter=0;" parent="1" source="GSm0A96lBEENtcwGzsFb-9" target="GSm0A96lBEENtcwGzsFb-1" edge="1">
          <mxGeometry relative="1" as="geometry">
            <mxPoint x="420" y="230" as="sourcePoint" />
            <mxPoint x="340" y="230" as="targetPoint" />
          </mxGeometry>
        </mxCell>
        <mxCell id="FsLcxieu5-XQCKXkS7uP-12" value="getItems()" style="html=1;verticalAlign=bottom;endArrow=block;curved=0;rounded=0;entryX=0;entryY=0;entryDx=0;entryDy=5;entryPerimeter=0;" parent="1" edge="1">
          <mxGeometry width="80" relative="1" as="geometry">
            <mxPoint x="137.5" y="340" as="sourcePoint" />
            <mxPoint x="442.5" y="340" as="targetPoint" />
          </mxGeometry>
        </mxCell>
        <mxCell id="FsLcxieu5-XQCKXkS7uP-17" value="i2:= list&amp;lt;Item&amp;gt;" style="html=1;verticalAlign=bottom;endArrow=open;dashed=1;endSize=8;curved=0;rounded=0;exitX=0;exitY=1;exitDx=0;exitDy=-5;exitPerimeter=0;" parent="1" edge="1">
          <mxGeometry relative="1" as="geometry">
            <mxPoint x="442.5" y="360" as="sourcePoint" />
            <mxPoint x="137.5" y="360" as="targetPoint" />
          </mxGeometry>
        </mxCell>
        <mxCell id="FsLcxieu5-XQCKXkS7uP-20" value="addItems(i3)" style="html=1;verticalAlign=bottom;endArrow=block;curved=0;rounded=0;entryX=0;entryY=0;entryDx=0;entryDy=5;entryPerimeter=0;" parent="1" source="GSm0A96lBEENtcwGzsFb-4" target="FsLcxieu5-XQCKXkS7uP-21" edge="1">
          <mxGeometry width="80" relative="1" as="geometry">
            <mxPoint x="140" y="440" as="sourcePoint" />
            <mxPoint x="220" y="440" as="targetPoint" />
          </mxGeometry>
        </mxCell>
        <mxCell id="FsLcxieu5-XQCKXkS7uP-22" value="" style="html=1;verticalAlign=bottom;endArrow=open;dashed=1;endSize=8;curved=0;rounded=0;exitX=0;exitY=1;exitDx=0;exitDy=-5;exitPerimeter=0;" parent="1" source="FsLcxieu5-XQCKXkS7uP-21" target="GSm0A96lBEENtcwGzsFb-4" edge="1">
          <mxGeometry relative="1" as="geometry">
            <mxPoint x="400" y="470" as="sourcePoint" />
            <mxPoint x="320" y="470" as="targetPoint" />
          </mxGeometry>
        </mxCell>
      </root>
    </mxGraphModel>
  </diagram>
</mxfile>
